<svg viewBox="0 0 24 24" fill="none" xmlns="http://www.w3.org/2000/svg" aria-hidden="true">
<path fill="currentColor" d="M22 20v2H2v-2h20ZM13.429 3c1.447 0 2.67.425 3.498 1.249.84.837 1.163 1.975.998 3.14a4.51 4.51 0 0 1-1.576 2.867c.169.105.33.223.48.351.929.8 1.37 1.982 1.085 3.348-.332 1.589-1.195 2.643-2.303 3.27-1.066.603-2.292.775-3.351.775H7l-.984-1.177 2.338-13L9.338 3h4.09ZM8.196 16h4.064c.877 0 1.716-.147 2.366-.516.61-.345 1.116-.915 1.33-1.94.138-.658-.06-1.1-.432-1.42-.418-.36-1.143-.624-2.095-.624H9.005L8.196 16Zm1.17-6.5h3.478c1.576 0 2.896-.943 3.101-2.39.087-.614-.083-1.1-.428-1.444C15.159 5.311 14.502 5 13.429 5h-3.255l-.809 4.5Z"/>
</svg>
